<?xml version="1.0" standalone="no"?>
<!DOCTYPE svg PUBLIC "-//W3C//DTD SVG 20010904//EN"
 "http://www.w3.org/TR/2001/REC-SVG-20010904/DTD/svg10.dtd">
<svg version="1.0" xmlns="http://www.w3.org/2000/svg"
 width="531.000000pt" height="531.000000pt" viewBox="0 0 531.000000 531.000000"
 preserveAspectRatio="xMidYMid meet">
<metadata>
Created by potrace 1.14, written by Peter Selinger 2001-2017
</metadata>
<g transform="translate(0.000000,531.000000) scale(0.100000,-0.100000)"
fill="#000000" stroke="none">
<path d="M2285 4710 c-281 -30 -405 -198 -511 -691 -8 -41 -17 -81 -20 -89
-24 -90 -43 -178 -47 -229 -4 -35 -11 -69 -17 -75 -5 -7 -7 -16 -3 -19 3 -4 2
-7 -4 -7 -6 0 -16 -21 -23 -47 -7 -27 -16 -52 -20 -58 -15 -23 -18 -158 -6
-275 7 -64 7 -65 -28 -102 -19 -20 -52 -46 -73 -57 -53 -28 -66 -41 -84 -81
-14 -30 -14 -41 -4 -77 30 -100 95 -168 158 -163 42 4 47 0 47 -31 0 -83 74
-124 188 -104 l42 8 -6 -30 c-8 -42 23 -77 70 -77 25 0 38 -5 41 -16 10 -31
71 -46 104 -26 5 3 22 -8 39 -24 33 -31 56 -32 98 -5 21 14 24 13 38 -7 16
-23 14 -30 -25 -74 -48 -55 -112 -73 -124 -36 -6 21 -45 42 -75 42 -11 0 -28
-9 -38 -21 l-20 -20 -24 23 c-46 43 -72 58 -99 58 -34 0 -53 -23 -46 -55 5
-31 -18 -47 -72 -48 -20 -1 -41 -6 -47 -11 -14 -15 -24 -55 -14 -61 4 -2 5
-16 2 -30 -3 -16 2 -33 14 -46 10 -11 19 -27 20 -36 4 -26 20 -35 69 -38 61
-4 116 11 139 38 18 22 18 22 11 -23 -8 -48 -12 -67 -21 -103 -12 -45 -13
-198 -2 -222 15 -33 58 -27 99 13 18 17 54 39 82 49 30 11 62 32 81 54 33 38
69 62 79 52 4 -3 22 6 42 21 41 31 59 27 45 -9 -5 -14 -9 -51 -9 -83 0 -51 -3
-81 -17 -162 -5 -34 -16 -111 -19 -135 -1 -11 -4 -27 -7 -35 -3 -8 -11 -44
-18 -80 -6 -36 -20 -85 -31 -110 -11 -25 -20 -46 -19 -48 6 -17 -218 -143
-257 -145 -7 0 -13 -4 -13 -9 0 -4 -11 -8 -24 -8 -30 0 -92 -26 -103 -42 -4
-7 -17 -13 -28 -14 -30 -1 -118 -14 -137 -20 -43 -13 -70 -16 -166 -20 -105
-4 -162 -22 -162 -51 0 -21 44 -43 98 -48 29 -2 56 -6 61 -10 5 -3 12 -2 15 3
2 4 38 7 79 6 66 -1 85 -6 161 -43 170 -83 332 -119 436 -98 86 17 173 51 232
91 32 21 84 19 143 -4 22 -9 48 -14 58 -12 24 5 22 53 -4 86 -11 14 -17 26
-14 26 4 0 2 6 -4 14 -10 12 -8 19 7 34 18 18 31 20 134 16 63 -1 146 -5 186
-8 47 -4 72 -2 72 5 0 5 5 7 10 4 13 -8 13 -45 1 -45 -6 0 -13 5 -16 10 -10
16 -25 2 -25 -22 0 -12 -8 -30 -17 -40 -21 -23 -25 -46 -12 -70 12 -22 25 -23
63 -3 16 9 44 17 62 20 27 3 39 -2 71 -35 46 -45 96 -61 191 -61 75 1 91 3
110 14 6 5 12 6 12 4 0 -3 29 1 65 8 36 6 65 9 65 6 0 -3 12 -7 28 -8 15 -1
43 -2 62 -4 41 -3 95 6 136 22 16 6 69 13 119 15 64 3 93 8 105 20 14 14 12
18 -13 38 -33 27 -22 25 -211 27 -91 1 -158 6 -170 13 -33 18 -46 34 -46 55 0
11 -8 27 -17 37 -10 10 -17 20 -17 23 2 10 -33 51 -43 51 -6 0 -22 11 -36 24
-14 13 -28 21 -31 18 -3 -3 -6 0 -6 7 0 7 -4 10 -9 6 -11 -6 -10 -6 -74 75
-108 137 -112 155 -122 510 -3 102 -6 196 -8 210 -2 28 -4 28 126 11 109 -14
113 -16 138 -67 35 -69 66 -87 117 -70 22 8 53 54 59 91 16 96 19 137 16 241
l-3 119 31 33 c16 17 38 33 47 33 20 2 46 -2 50 -6 14 -13 21 -442 9 -545 -10
-92 -37 -211 -64 -285 -13 -38 -26 -74 -28 -80 -2 -5 -6 -20 -10 -32 -4 -13
-11 -23 -14 -23 -4 0 -8 -6 -9 -12 0 -7 -14 -51 -31 -98 -40 -114 -39 -196 3
-258 16 -23 31 -42 35 -42 12 0 59 139 67 197 1 12 17 79 34 150 31 127 36
147 44 180 3 10 12 54 21 98 9 44 20 95 25 114 10 36 6 368 -5 539 l-7 103 25
-5 c46 -8 96 61 66 91 -7 7 -7 13 -1 17 7 4 6 15 -3 32 -7 15 -11 33 -8 40 7
18 -24 47 -42 41 -13 -6 -39 15 -30 25 4 4 15 85 17 128 0 8 4 38 9 65 5 28
12 73 15 100 4 28 8 53 10 56 1 3 6 28 9 55 3 27 10 74 16 104 5 30 11 82 15
115 8 90 7 88 68 81 30 -2 72 -9 93 -15 21 -5 58 -12 83 -15 25 -3 55 -7 66
-10 12 -2 39 -7 60 -10 22 -3 50 -8 64 -11 14 -3 34 -7 45 -9 33 -6 106 -26
170 -47 33 -11 69 -21 80 -23 11 -2 54 -23 95 -47 71 -40 101 -64 120 -99 22
-38 47 47 44 150 -2 90 -11 137 -32 165 -21 29 -83 61 -136 69 -22 4 -48 9
-60 11 -12 3 -43 7 -71 10 -27 2 -60 7 -72 9 -12 3 -46 7 -75 10 -29 4 -62 8
-73 10 -11 2 -51 7 -89 11 -38 4 -79 8 -90 10 -28 4 -101 14 -153 20 -23 3
-45 1 -48 -5 -12 -20 -34 -9 -40 20 -5 22 -12 29 -25 27 -27 -4 -29 -8 -36
-58 -3 -24 -16 -93 -29 -154 -14 -60 -27 -125 -30 -144 -3 -19 -8 -37 -10 -41
-3 -4 -7 -22 -9 -41 -3 -19 -10 -52 -15 -74 -5 -22 -12 -59 -15 -82 -3 -22 -7
-52 -10 -65 -5 -22 -8 -41 -22 -143 -3 -27 -8 -53 -10 -57 -3 -4 -20 -4 -39
-1 -35 6 -75 -16 -75 -39 0 -5 -11 -19 -25 -31 -35 -30 -40 -63 -12 -72 12 -4
26 -6 31 -6 5 1 6 -5 2 -14 -3 -9 -6 -19 -6 -21 0 -2 -11 -4 -25 -4 -14 0 -25
5 -25 10 0 6 -11 15 -25 20 -36 14 -71 -4 -127 -63 -41 -43 -50 -48 -63 -37
-22 18 -45 64 -45 90 0 12 -9 40 -20 62 -20 42 -19 78 2 78 6 0 8 3 5 6 -4 4
12 29 34 55 23 27 38 49 33 49 -4 0 3 9 16 20 13 11 20 20 16 20 -4 0 5 12 19
28 28 28 131 163 152 197 66 108 123 214 143 265 8 19 16 37 19 40 6 5 40 99
46 129 2 9 13 46 24 84 11 37 20 70 20 72 1 3 1 6 2 8 2 9 11 89 13 122 2 37
-4 86 -18 145 -11 49 -67 146 -110 192 -49 51 -155 127 -188 133 -11 3 -28 11
-37 18 -18 16 -247 100 -304 111 -7 2 -24 8 -40 14 -15 7 -38 14 -51 16 -13 2
-32 9 -42 14 -11 6 -62 27 -114 48 -133 51 -182 76 -232 116 -24 20 -61 47
-83 60 -41 26 -206 84 -260 92 -16 2 -37 6 -45 9 -8 2 -46 1 -85 -3z m1015
-1817 c0 -10 -75 -93 -84 -93 -4 0 -5 11 -3 24 3 29 40 61 85 75 1 1 2 -2 2
-6z m489 -244 c20 -13 21 -16 7 -34 -15 -20 -15 -20 -16 4 0 20 -2 22 -16 10
-23 -19 -54 -19 -54 1 0 37 39 46 79 19z m-77 -64 c-2 -5 -8 -9 -13 -7 -5 1
-9 -2 -9 -7 0 -5 -9 -11 -20 -14 -11 -3 -18 -2 -17 1 2 4 7 15 10 25 5 12 15
17 29 15 13 -2 21 -7 20 -13z m-1727 -326 c7 -21 -11 -52 -25 -44 -4 3 -12 18
-18 33 -9 25 -7 28 14 30 15 1 25 -5 29 -19z m52 3 c8 -5 8 -13 -2 -31 -12
-23 -13 -23 -22 -5 -17 32 -3 53 24 36z m-97 -82 c0 -5 -5 -10 -11 -10 -5 0
-8 -4 -4 -9 3 -6 -3 -15 -14 -20 -25 -14 -37 12 -15 34 17 17 44 20 44 5z
m-183 -53 c0 -8 -6 -14 -14 -14 -17 0 -17 14 0 20 6 3 12 6 13 6 0 1 1 -5 1
-12z m824 -347 c10 0 20 -4 24 -10 8 -13 -26 -50 -47 -50 -14 0 -18 8 -18 42
0 33 3 39 12 30 7 -7 20 -12 29 -12z m392 -318 c4 -36 3 -41 -9 -31 -7 6 -12
15 -9 19 3 5 0 10 -7 12 -7 3 -9 14 -4 32 9 37 22 23 29 -32z m-9 -103 c-4
-61 -13 -78 -15 -26 -1 21 -2 43 -3 50 -3 15 3 27 13 27 4 0 6 -23 5 -51z m3
-99 c2 -11 -1 -20 -5 -20 -4 0 -8 11 -8 25 0 28 8 24 13 -5z m7 -102 c-2 -10
1 -18 5 -18 14 0 20 -64 8 -78 -9 -11 -13 -9 -21 10 -10 25 -16 137 -7 153 7
12 19 -43 15 -67z m-408 6 c-3 -9 -6 -18 -6 -20 0 -2 -4 -4 -9 -4 -5 0 -7 9
-4 20 3 11 10 20 15 20 6 0 7 -7 4 -16z m-25 -77 c-13 -13 -15 1 -4 30 7 17 8
17 11 -1 2 -10 -1 -23 -7 -29z m504 23 c-3 -5 -10 -10 -16 -10 -5 0 -9 5 -9
10 0 6 7 10 16 10 8 0 12 -4 9 -10z m-530 -61 c-4 -5 -2 -9 3 -9 5 0 9 -7 9
-15 0 -8 -8 -15 -17 -15 -13 0 -16 7 -12 30 2 16 8 27 13 24 5 -3 7 -10 4 -15z
m551 -4 c3 -14 3 -32 0 -41 -5 -14 -8 -14 -21 0 -23 22 -18 66 6 66 5 0 11
-11 15 -25z m-503 -31 c-4 -12 -8 -13 -14 -3 -9 15 -2 32 11 24 5 -3 6 -13 3
-21z m4 -56 c32 -30 29 -38 -14 -37 -21 0 -47 -1 -58 -3 -15 -2 -19 3 -20 22
0 18 5 25 18 24 9 -1 17 2 17 7 0 17 34 9 57 -13z m496 9 c26 -18 1 -48 -41
-49 -18 -1 -35 -5 -38 -10 -7 -11 -44 -10 -44 2 0 5 7 15 16 22 8 7 23 21 32
31 19 20 51 22 75 4z"/>
</g>
</svg>
